/* XPM */
static char * close_inactive_xpm[] = {
"42 28 4 1",
" 	c None",
".	c #202020",
"#	c #FFFFFF",
"+	c #333333",
"..........................................",
"..........................................",
"..........................................",
"..........................................",
"..........................................",
"..........................................",
"..........................................",
"..........................................",
"..........................................",
"..........................................",
"................#+......+#................",
"................+#+....+#+................",
".................+#+..+#+.................",
"..................+#++#+..................",
"...................+##+...................",
"...................+##+...................",
"..................+#++#+..................",
".................+#+..+#+.................",
"................+#+....+#+................",
"................#+......+#................",
"..........................................",
"..........................................",
"..........................................",
"..........................................",
"..........................................",
"..........................................",
"..........................................",
"..........................................",
"........................................."},
