/* XPM */
static char * maximize_toggled_active_xpm[] = {
"42 28 3 1",
" 	c None",
".	c None",
"#	c #FFFFFF",
"..........................................",
"..........................................",
"..........................................",
"..........................................",
"..........................................",
"..........................................",
"..........................................",
"..........................................",
"..........................................",
"..................########................",
"..................#......#................",
"................########.#................",
"................#......#.#................",
"................#......#.#................",
"................#......#.#................",
"................#......#.#................",
"................#......###................",
"................#......#..................",
"................########..................",
"..........................................",
"..........................................",
"..........................................",
"..........................................",
"..........................................",
"..........................................",
"..........................................",
"..........................................",
".........................................."};
