/* XPM */
static char * maximize_active_xpm[] = {
"42 28 3 1",
" 	c None",
".	c #000000",
"#	c #FFFFFF",
"..........................................",
"..........................................",
"..........................................",
"..........................................",
"..........................................",
"..........................................",
"..........................................",
"..........................................",
"..........................................",
"................##########................",
"................#........#................",
"................#........#................",
"................#........#................",
"................#........#................",
"................#........#................",
"................#........#................",
"................#........#................",
"................#........#................",
"................##########................",
"..........................................",
"..........................................",
"..........................................",
"..........................................",
"..........................................",
"..........................................",
"..........................................",
"..........................................",
".........................................."};
